<?xml version="1.0" encoding="UTF-8" standalone="no"?>
<!DOCTYPE svg PUBLIC "-//W3C//DTD SVG 1.1//EN" "http://www.w3.org/Graphics/SVG/1.1/DTD/svg11.dtd">
<svg xmlns="http://www.w3.org/2000/svg" xmlns:xl="http://www.w3.org/1999/xlink" version="1.1" xmlns:dc="http://purl.org/dc/elements/1.1/" viewBox="101.32399 1046 382.00987 162.3541" width="382.00987" height="162.3541">
  <defs>
    <linearGradient x1="0" x2="1" id="Gradient" gradientUnits="userSpaceOnUse">
      <stop offset="0" stop-color="#cadff6"/>
      <stop offset="0" stop-color="#85add3"/>
      <stop offset="1" stop-color="#3275ad"/>
    </linearGradient>
    <linearGradient id="Obj_Gradient" xl:href="#Gradient" gradientTransform="translate(292.32893 1208.3541) rotate(-90) scale(162.3541)"/>
  </defs>
  <metadata> Produced by OmniGraffle 7.11.5 
    <dc:date>2020-10-19 08:02:55 +0000</dc:date>
  </metadata>
  <g id="icons_light" stroke="none" fill="none" stroke-dasharray="none" fill-opacity="1" stroke-opacity="1">
    <title>icons light</title>
    <g id="icons_light: Streams">
      <title>Streams</title>
      <g id="Graphic_31">
        <title>Custom</title>
        <path d="M 101.32399 1142.1049 L 101.32399 1142.1049 C 101.32399 1142.1049 101.32399 1142.1049 101.32399 1142.1049 C 101.32399 1142.1049 132.53074 1121.4777 174.32402 1120.8427 C 216.1173 1120.2078 255.33187 1142.5483 282.76096 1156.2796 C 310.19006 1170.011 354.0339 1184.0581 388.36295 1182.503 C 422.692 1180.9478 449.5202 1167.8556 465.9288 1145.4122 C 482.33737 1122.969 483.33386 1087.532 483.33386 1087.532 C 483.33386 1087.532 471.1622 1127.8766 442.22705 1148.4835 C 413.29187 1169.0905 385.95906 1168.3084 343.71244 1154.8622 C 301.46583 1141.416 223.35367 1099.6331 176.45024 1105.2505 C 129.54681 1110.8679 101.324 1142.1049 101.32399 1142.1049 Z M 136.64902 1144.3473 L 136.64902 1144.3473 C 136.64902 1144.3473 136.64902 1144.3473 136.64902 1144.3473 C 136.64902 1144.3473 152.42916 1144.0284 168.54224 1147.3967 C 184.65533 1150.765 216.32394 1163.7048 232.18693 1171.035 C 248.04992 1178.3652 280.82688 1192.3256 296.82385 1198.2965 C 312.82082 1204.2674 332.10092 1208.015 347.5695 1208.3402 C 363.0381 1208.6655 388.66842 1203.1878 388.3928 1201.1661 C 388.1172 1199.1444 358.72784 1205.5768 320.63745 1192.2703 C 282.54706 1178.9637 231.92645 1153.2236 215.7442 1148.0779 C 199.56195 1142.9321 182.801 1138.9908 167.55 1139.182 C 152.29901 1139.3732 136.64903 1144.3473 136.64902 1144.3473 Z M 454.13385 1046 C 454.13385 1046 453.02864 1071.279 449.20256 1084.1773 C 445.3765 1097.0755 441.23694 1107.175 435.0278 1115.9287 C 428.81866 1124.6825 423.98637 1129.8965 410.9307 1137.4744 C 397.87503 1145.0523 372.6966 1149.2843 372.6072 1150.6853 C 372.51785 1152.0862 391.85498 1153.0055 401.29186 1151.0822 C 410.72874 1149.1588 421.8548 1145.3501 433.04333 1137.4744 C 444.23184 1129.5986 449.7328 1122.822 454.87247 1113.6608 C 460.01214 1104.4995 462.88703 1097.124 463.7727 1077.468 C 464.65835 1057.812 454.13385 1046 454.13385 1046 Z" fill="url(#Obj_Gradient)"/>
      </g>
    </g>
  </g>
</svg>
