<?xml version="1.0" encoding="UTF-8" standalone="no"?>
<!DOCTYPE svg PUBLIC "-//W3C//DTD SVG 1.1//EN" "http://www.w3.org/Graphics/SVG/1.1/DTD/svg11.dtd">
<svg version="1.1" xmlns:xl="http://www.w3.org/1999/xlink" xmlns="http://www.w3.org/2000/svg" xmlns:dc="http://purl.org/dc/elements/1.1/" viewBox="147.5202 941 190.32911 210.63089" width="190.32911" height="210.63089">
  <defs>
    <linearGradient x1="0" x2="1" id="Gradient" gradientUnits="userSpaceOnUse">
      <stop offset="0" stop-color="#2e74af"/>
      <stop offset="1" stop-color="#84acd4"/>
      <stop offset="1" stop-color="#cadff6"/>
    </linearGradient>
    <linearGradient id="Obj_Gradient" xl:href="#Gradient" gradientTransform="translate(242.68475 1151.6309) rotate(-90) scale(210.63089)"/>
  </defs>
  <metadata> Produced by OmniGraffle 7.11.5 
    <dc:date>2020-10-16 12:22:24 +0000</dc:date>
  </metadata>
  <g id="icons_light" stroke="none" fill-opacity="1" stroke-dasharray="none" stroke-opacity="1" fill="none">
    <title>icons light</title>
    <g id="icons_light: Misc">
      <title>Misc</title>
      <g id="Graphic_4">
        <title>Share</title>
        <path d="M 306.1278 1089.8797 C 298.09167 1089.8797 290.90146 1093.0518 285.40306 1098.0215 L 210.01159 1054.1401 C 210.54028 1051.7081 210.96323 1049.2761 210.96323 1046.7384 C 210.96323 1044.2007 210.54028 1041.7687 210.01159 1039.3367 L 284.55716 995.8782 C 290.26703 1001.1651 297.77446 1004.443 306.1278 1004.443 C 323.68036 1004.443 337.8493 990.2741 337.8493 972.7215 C 337.8493 955.169 323.68036 941 306.1278 941 C 288.5752 941 274.40627 955.169 274.40627 972.7215 C 274.40627 975.2592 274.82922 977.6912 275.3579 980.1232 L 200.81234 1023.5817 C 195.10247 1018.2948 187.59505 1015.0169 179.24171 1015.0169 C 161.68914 1015.0169 147.5202 1029.1858 147.5202 1046.7384 C 147.5202 1064.291 161.68914 1078.4599 179.24171 1078.4599 C 187.59505 1078.4599 195.10247 1075.182 200.81234 1069.8951 L 276.0981 1113.8823 C 275.5694 1116.1028 275.25218 1118.429 275.25218 1120.7553 C 275.25218 1137.7792 289.1039 1151.6309 306.1278 1151.6309 C 323.15167 1151.6309 337.0034 1137.7792 337.0034 1120.7553 C 337.0034 1103.7314 323.15167 1089.8797 306.1278 1089.8797 Z" fill="url(#Obj_Gradient)"/>
      </g>
    </g>
  </g>
</svg>
