<?xml version="1.0" encoding="UTF-8" standalone="no"?>
<!DOCTYPE svg PUBLIC "-//W3C//DTD SVG 1.1//EN" "http://www.w3.org/Graphics/SVG/1.1/DTD/svg11.dtd">
<svg version="1.1" xmlns:dc="http://purl.org/dc/elements/1.1/" xmlns:xl="http://www.w3.org/1999/xlink" xmlns="http://www.w3.org/2000/svg" viewBox="130.73577 1099 323.1863 137.3541" width="323.1863" height="137.3541">
  <defs>
    <linearGradient x1="0" x2="1" id="Gradient" gradientUnits="userSpaceOnUse">
      <stop offset="0" stop-color="#cadff6"/>
      <stop offset="0" stop-color="#85add3"/>
      <stop offset="1" stop-color="#3275ad"/>
    </linearGradient>
    <linearGradient id="Obj_Gradient" xl:href="#Gradient" gradientTransform="translate(292.32893 1236.3541) rotate(-90) scale(137.3541)"/>
  </defs>
  <metadata> Produced by OmniGraffle 7.11.5 
    <dc:date>2020-10-16 13:42:44 +0000</dc:date>
  </metadata>
  <g id="icons_light" stroke="none" fill="none" stroke-dasharray="none" fill-opacity="1" stroke-opacity="1">
    <title>icons light</title>
    <g id="icons_light: Streams">
      <title>Streams</title>
      <g id="Graphic_31">
        <title>Custom</title>
        <path d="M 130.73577 1180.3062 L 130.73577 1180.3062 C 130.73577 1180.3062 130.73577 1180.3062 130.73577 1180.3062 C 130.73577 1180.3062 157.13717 1162.8553 192.49494 1162.3181 C 227.8527 1161.781 261.02884 1180.6813 284.23428 1192.2983 C 307.43972 1203.9153 344.5323 1215.7993 373.5752 1214.4836 C 402.6181 1213.168 425.3152 1202.0917 439.1971 1183.1043 C 453.07903 1164.1169 453.9221 1134.1368 453.9221 1134.1368 C 453.9221 1134.1368 443.6247 1168.2689 419.1451 1185.7027 C 394.66547 1203.1364 371.5415 1202.4748 335.8002 1191.0991 C 300.0589 1179.7234 233.97478 1144.3745 194.29375 1149.1268 C 154.61272 1153.8792 130.73578 1180.3062 130.73577 1180.3062 Z M 160.6213 1182.2034 L 160.6213 1182.2034 C 160.6213 1182.2034 160.6213 1182.2034 160.6213 1182.2034 C 160.6213 1182.2034 173.97155 1181.9336 187.60346 1184.7832 C 201.23538 1187.6328 228.02752 1198.58 241.44786 1204.7815 C 254.8682 1210.983 282.598 1222.7937 296.1317 1227.8452 C 309.6654 1232.8967 325.97666 1236.0672 339.0633 1236.3424 C 352.14998 1236.6175 373.83364 1231.9834 373.6005 1230.273 C 373.3673 1228.5626 348.50345 1234.0044 316.2784 1222.7469 C 284.05332 1211.4894 241.2275 1189.7128 227.53706 1185.3595 C 213.84662 1181.0061 199.6666 1177.6717 186.76402 1177.8334 C 173.86143 1177.9952 160.6213 1182.2034 160.6213 1182.2034 Z M 429.2184 1099 C 429.2184 1099 428.2834 1120.3864 425.04647 1131.2986 C 421.80954 1142.2107 418.30743 1150.755 413.0544 1158.1608 C 407.80137 1165.5667 403.71317 1169.9777 392.66788 1176.3888 C 381.6226 1182.7998 360.32122 1186.3801 360.2456 1187.5654 C 360.17 1188.7506 376.5295 1189.5283 384.51327 1187.9011 C 392.497 1186.274 401.90986 1183.0518 411.3755 1176.3888 C 420.84116 1169.7257 425.49505 1163.9926 429.8433 1156.2421 C 434.19154 1148.4915 436.62374 1142.2517 437.373 1125.6224 C 438.1223 1108.9931 429.2184 1099 429.2184 1099 Z" fill="url(#Obj_Gradient)"/>
      </g>
    </g>
  </g>
</svg>
